<svg width="22" height="22" viewBox="0 0 22 22" fill="none" xmlns="http://www.w3.org/2000/svg">
<path d="M9.62492 16.0417H12.3749V13.75H14.6666V11H12.3749V8.70833H9.62492V11H7.33325V13.75H9.62492V16.0417ZM6.41659 19.25C5.91242 19.25 5.48097 19.0706 5.12225 18.7119C4.76353 18.3532 4.58386 17.9214 4.58325 17.4167V7.33333C4.58325 6.82917 4.76292 6.39772 5.12225 6.039C5.48159 5.68028 5.91303 5.50061 6.41659 5.5H15.5833C16.0874 5.5 16.5192 5.67967 16.8785 6.039C17.2378 6.39833 17.4172 6.82978 17.4166 7.33333V17.4167C17.4166 17.9208 17.2372 18.3526 16.8785 18.7119C16.5198 19.0713 16.088 19.2506 15.5833 19.25H6.41659ZM5.49992 4.58333V2.75H16.4999V4.58333H5.49992Z" fill="#03A3DC"/>
</svg>
