<svg width="16" height="16" viewBox="0 0 16 16" fill="none" xmlns="http://www.w3.org/2000/svg">
<path d="M11.3333 14.6667C10.411 14.6667 9.62503 14.3416 8.97525 13.6914C8.32547 13.0411 8.00036 12.2551 7.99992 11.3334C7.99947 10.4116 8.32458 9.62558 8.97525 8.97535C9.62592 8.32513 10.4119 8.00002 11.3333 8.00002C12.2546 8.00002 13.0408 8.32513 13.6919 8.97535C14.343 9.62558 14.6679 10.4116 14.6666 11.3334C14.6653 12.2551 14.3401 13.0414 13.6913 13.692C13.0424 14.3427 12.2564 14.6676 11.3333 14.6667ZM11.4666 11.6667L12.9833 10.15L12.5166 9.68335L10.9999 11.2L11.4666 11.6667ZM1.33325 7.33335V4.00002C1.33325 3.63335 1.46392 3.31958 1.72525 3.05869C1.98659 2.7978 2.30036 2.66713 2.66659 2.66669H13.3333C13.6999 2.66669 14.0139 2.79735 14.2753 3.05869C14.5366 3.32002 14.667 3.6338 14.6666 4.00002V8.06669C14.2221 7.61113 13.7139 7.26402 13.1419 7.02535C12.5699 6.78669 11.967 6.66713 11.3333 6.66669C10.911 6.66669 10.5084 6.71958 10.1253 6.82535C9.74214 6.93113 9.37814 7.07824 9.03325 7.26669L7.93325 5.03335C7.8777 4.92224 7.79436 4.83891 7.68325 4.78335C7.57214 4.7278 7.45547 4.70002 7.33325 4.70002C7.21103 4.70002 7.09436 4.7278 6.98325 4.78335C6.87214 4.83891 6.78881 4.92224 6.73325 5.03335L4.66658 9.18335L3.91659 7.70002C3.86103 7.58891 3.78036 7.50002 3.67459 7.43335C3.56881 7.36669 3.45503 7.33335 3.33325 7.33335H1.33325ZM2.66659 13.3334C2.29992 13.3334 1.98614 13.2029 1.72525 12.942C1.46436 12.6811 1.3337 12.3671 1.33325 12V8.66669H2.91659L4.06659 10.9667C4.12214 11.0889 4.20281 11.1807 4.30858 11.242C4.41436 11.3034 4.5337 11.3338 4.66658 11.3334C4.78881 11.3334 4.90281 11.3029 5.00858 11.242C5.11436 11.1811 5.19481 11.0894 5.24992 10.9667L7.33325 6.83335L7.96658 8.10002C7.56658 8.52224 7.24992 9.00846 7.01658 9.55869C6.78325 10.1089 6.66658 10.7005 6.66658 11.3334C6.66658 11.6778 6.70281 12.0196 6.77525 12.3587C6.8477 12.6978 6.96147 13.0227 7.11659 13.3334H2.66659Z" fill="#03A3DC"/>
</svg>
