<svg width="22" height="22" viewBox="0 0 22 22" fill="none" xmlns="http://www.w3.org/2000/svg">
<path d="M11.6875 19.9375H10.3125C9.94781 19.9375 9.59807 19.7926 9.34021 19.5348C9.08235 19.2769 8.93748 18.9272 8.93748 18.5625L8.93963 14.8749C8.93968 14.8447 8.93177 14.8151 8.9167 14.7889C8.90163 14.7627 8.87994 14.741 8.8538 14.7259C8.82767 14.7108 8.79801 14.7028 8.76782 14.7028C8.73763 14.7028 8.70797 14.7107 8.68182 14.7258L5.48752 16.5761C5.17686 16.7554 4.80768 16.804 4.46119 16.7112C4.11469 16.6184 3.81926 16.3917 3.63987 16.0811L2.93088 14.8504L2.9283 14.8461C2.75375 14.5356 2.70799 14.169 2.80088 13.8251C2.89376 13.4812 3.11787 13.1875 3.42502 13.0071L6.63092 11.1487C6.65697 11.1336 6.67859 11.1119 6.69361 11.0858C6.70864 11.0597 6.71655 11.0301 6.71655 11C6.71655 10.9699 6.70864 10.9403 6.69361 10.9142C6.67859 10.8881 6.65697 10.8664 6.63092 10.8513L3.42803 8.99465C3.27382 8.90622 3.13859 8.78819 3.03012 8.64735C2.92165 8.50651 2.84207 8.34563 2.79596 8.17394C2.74984 8.00226 2.7381 7.82316 2.7614 7.64692C2.7847 7.47069 2.84259 7.30079 2.93174 7.14699L3.63815 5.92023C3.72741 5.76514 3.84656 5.6293 3.98869 5.52058C4.13082 5.41187 4.29311 5.33243 4.46616 5.28688C4.63723 5.24096 4.81572 5.22948 4.99127 5.25308C5.16682 5.27668 5.33594 5.33491 5.48881 5.42437L8.68182 7.27203C8.70797 7.28713 8.73763 7.29507 8.76782 7.29506C8.79801 7.29505 8.82767 7.28708 8.8538 7.27197C8.87994 7.25685 8.90163 7.23512 8.9167 7.20896C8.93177 7.18279 8.93968 7.15312 8.93963 7.12293L8.93748 3.4375C8.93748 3.07283 9.08235 2.72309 9.34021 2.46523C9.59807 2.20737 9.94781 2.0625 10.3125 2.0625H11.6875C12.0522 2.0625 12.4019 2.20737 12.6598 2.46523C12.9176 2.72309 13.0625 3.07283 13.0625 3.4375V7.12078C13.0624 7.15097 13.0703 7.18064 13.0854 7.20681C13.1005 7.23297 13.1222 7.2547 13.1483 7.26982C13.1744 7.28493 13.2041 7.2929 13.2343 7.29291C13.2645 7.29292 13.2941 7.28498 13.3203 7.26988L16.5146 5.41965C16.8253 5.24065 17.1944 5.19224 17.5408 5.28504C17.8872 5.37784 18.1826 5.60427 18.3622 5.91465L19.0708 7.14527L19.0734 7.14914C19.2499 7.45998 19.2964 7.82802 19.2027 8.17301C19.1091 8.518 18.8828 8.81195 18.5732 8.99078L15.3708 10.847C15.3447 10.8621 15.3231 10.8838 15.3081 10.9099C15.293 10.936 15.2851 10.9656 15.2851 10.9957C15.2851 11.0258 15.293 11.0554 15.3081 11.0815C15.3231 11.1076 15.3447 11.1293 15.3708 11.1444L18.5732 13.0006C18.7274 13.0891 18.8627 13.2071 18.9711 13.3479C19.0796 13.4887 19.1592 13.6496 19.2054 13.8213C19.2515 13.9929 19.2633 14.172 19.2401 14.3483C19.2168 14.5245 19.159 14.6944 19.0699 14.8483L18.3635 16.075C18.2743 16.2301 18.1551 16.366 18.013 16.4747C17.8709 16.5834 17.7086 16.6628 17.5355 16.7084C17.3645 16.7543 17.186 16.7658 17.0104 16.7422C16.8349 16.7186 16.6657 16.6604 16.5129 16.5709L13.3199 14.7232C13.2938 14.7082 13.2641 14.7002 13.234 14.7002C13.2038 14.7002 13.1742 14.7081 13.1481 14.7232C13.1219 14.7383 13.1002 14.7599 13.0851 14.786C13.07 14.8121 13.0621 14.8418 13.0621 14.8719L13.0625 18.5625C13.0625 18.9272 12.9176 19.2769 12.6598 19.5348C12.4019 19.7926 12.0522 19.9375 11.6875 19.9375Z" fill="#03A3DC"/>
</svg>
