<svg width="16" height="16" viewBox="0 0 16 16" fill="none" xmlns="http://www.w3.org/2000/svg">
<path d="M7.99995 4.66667C8.18884 4.66667 8.34728 4.60267 8.47528 4.47467C8.60328 4.34667 8.66706 4.18844 8.66661 4C8.66617 3.81156 8.60217 3.65333 8.47461 3.52533C8.34706 3.39733 8.18884 3.33333 7.99995 3.33333C7.81106 3.33333 7.65284 3.39733 7.52528 3.52533C7.39773 3.65333 7.33373 3.81156 7.33328 4C7.33284 4.18844 7.39684 4.34689 7.52528 4.47533C7.65373 4.60378 7.81195 4.66756 7.99995 4.66667ZM9.88328 4.66667H11.0499C11.3833 4.66667 11.6722 4.77778 11.9166 5C12.1611 5.22222 12.3111 5.49444 12.3666 5.81667L13.3166 12.4833C13.3722 12.8833 13.2695 13.2362 13.0086 13.542C12.7477 13.8478 12.4115 14.0004 11.9999 14H3.99995C3.58884 14 3.25261 13.8473 2.99128 13.542C2.72995 13.2367 2.62728 12.8838 2.68328 12.4833L3.63328 5.81667C3.68884 5.49444 3.83884 5.22222 4.08328 5C4.32773 4.77778 4.61661 4.66667 4.94995 4.66667H6.11661C6.08328 4.55556 6.0555 4.44733 6.03328 4.342C6.01106 4.23667 5.99995 4.12267 5.99995 4C5.99995 3.44444 6.19439 2.97222 6.58328 2.58333C6.97217 2.19444 7.44439 2 7.99995 2C8.5555 2 9.02773 2.19444 9.41661 2.58333C9.8055 2.97222 9.99995 3.44444 9.99995 4C9.99995 4.12222 9.98884 4.23622 9.96661 4.342C9.94439 4.44778 9.91661 4.556 9.88328 4.66667Z" fill="#03A3DC"/>
</svg>
