<svg width="22" height="22" viewBox="0 0 22 22" fill="none" xmlns="http://www.w3.org/2000/svg">
<path d="M9.16672 5.49999C8.66256 5.49999 8.23111 5.32063 7.87239 4.9619C7.51367 4.60318 7.334 4.17143 7.33339 3.66665C7.33278 3.16187 7.51245 2.73043 7.87239 2.37232C8.23233 2.01421 8.66378 1.83454 9.16672 1.83332C9.66967 1.8321 10.1014 2.01176 10.462 2.37232C10.8225 2.73287 11.0019 3.16432 11.0001 3.66665C10.9982 4.16899 10.8189 4.60074 10.462 4.9619C10.1051 5.32307 9.67333 5.50243 9.16672 5.49999ZM15.1251 16.5C15.7667 16.5 16.3091 16.2785 16.7521 15.8354C17.1952 15.3923 17.4167 14.85 17.4167 14.2083C17.4167 13.5667 17.1952 13.0243 16.7521 12.5812C16.3091 12.1382 15.7667 11.9167 15.1251 11.9167C14.4834 11.9167 13.941 12.1382 13.498 12.5812C13.0549 13.0243 12.8334 13.5667 12.8334 14.2083C12.8334 14.85 13.0549 15.3923 13.498 15.8354C13.941 16.2785 14.4834 16.5 15.1251 16.5ZM17.3251 17.6917C16.9889 17.9055 16.6376 18.066 16.2709 18.1729C15.9042 18.2799 15.5223 18.3333 15.1251 18.3333C13.9792 18.3333 13.0054 17.9324 12.2036 17.1307C11.4019 16.3289 11.0007 15.3548 11.0001 14.2083C10.9994 13.0619 11.4006 12.0881 12.2036 11.2869C13.0066 10.4857 13.9804 10.0845 15.1251 10.0833C16.2697 10.0821 17.2438 10.4833 18.0474 11.2869C18.851 12.0905 19.2519 13.0643 19.2501 14.2083C19.2501 14.6055 19.1966 14.9875 19.0896 15.3542C18.9827 15.7208 18.8223 16.0722 18.6084 16.4083L20.4417 18.2417C20.6098 18.4097 20.6938 18.6236 20.6938 18.8833C20.6938 19.143 20.6098 19.3569 20.4417 19.525C20.2737 19.693 20.0598 19.7771 19.8001 19.7771C19.5403 19.7771 19.3264 19.693 19.1584 19.525L17.3251 17.6917ZM10.0834 17.3937C10.3126 17.7604 10.5836 18.0965 10.8965 18.4021C11.2094 18.7076 11.5494 18.9826 11.9167 19.2271V19.25C11.9167 19.5097 11.8287 19.7276 11.6527 19.9036C11.4767 20.0796 11.2592 20.1673 11.0001 20.1667C10.7409 20.166 10.5234 20.078 10.3474 19.9027C10.1714 19.7273 10.0834 19.5097 10.0834 19.25V17.3937ZM8.25006 14.6667V19.25C8.25006 19.5097 8.16206 19.7276 7.98606 19.9036C7.81006 20.0796 7.5925 20.1673 7.33339 20.1667C7.07428 20.166 6.85672 20.078 6.68072 19.9027C6.50472 19.7273 6.41672 19.5097 6.41672 19.25V8.24999C5.65283 8.18888 4.89658 8.10485 4.14797 7.9979C3.39936 7.89096 2.65075 7.75346 1.90214 7.5854C1.64242 7.52429 1.4325 7.37915 1.27239 7.14999C1.11228 6.92082 1.07011 6.67637 1.14589 6.41665C1.22167 6.15693 1.37842 5.96596 1.61614 5.84374C1.85386 5.72151 2.10197 5.69096 2.36047 5.75207C3.47575 6.01179 4.60264 6.18749 5.74114 6.27915C6.87964 6.37082 8.0215 6.41665 9.16672 6.41665C10.3119 6.41665 11.4541 6.37082 12.5932 6.27915C13.7323 6.18749 14.8589 6.01179 15.973 5.75207C16.2327 5.69096 16.4811 5.72151 16.7182 5.84374C16.9553 5.96596 17.1118 6.15693 17.1876 6.41665C17.2633 6.67637 17.2215 6.92082 17.062 7.14999C16.9025 7.37915 16.6923 7.52429 16.4313 7.5854C15.6827 7.75346 14.9341 7.89096 14.1855 7.9979C13.4369 8.10485 12.6806 8.18888 11.9167 8.24999V9.18957C11.0917 9.72429 10.4271 10.431 9.92297 11.3098C9.41881 12.1886 9.16672 13.1548 9.16672 14.2083V14.4375C9.16672 14.5139 9.17436 14.5903 9.18964 14.6667H8.25006Z" fill="#03A3DC"/>
</svg>
