<svg width="22" height="22" viewBox="0 0 22 22" fill="none" xmlns="http://www.w3.org/2000/svg">
<path d="M10.0834 5.50001C10.0834 4.99584 10.4959 4.58334 11.0001 4.58334C11.5042 4.58334 11.9167 4.99584 11.9167 5.50001C11.9167 6.00418 11.5042 6.41668 11.0001 6.41668C10.4959 6.41668 10.0834 6.00418 10.0834 5.50001ZM7.33341 8.25001C7.83758 8.25001 8.25008 7.83751 8.25008 7.33334C8.25008 6.82918 7.83758 6.41668 7.33341 6.41668C6.82925 6.41668 6.41675 6.82918 6.41675 7.33334C6.41675 7.83751 6.82925 8.25001 7.33341 8.25001ZM5.50008 4.58334C5.50008 4.07918 5.08758 3.66668 4.58341 3.66668C4.07925 3.66668 3.66675 4.07918 3.66675 4.58334C3.66675 5.08751 4.07925 5.50001 4.58341 5.50001C5.08758 5.50001 5.50008 5.08751 5.50008 4.58334ZM8.25008 3.66668C8.75425 3.66668 9.16675 3.25418 9.16675 2.75001C9.16675 2.24584 8.75425 1.83334 8.25008 1.83334C7.74591 1.83334 7.33341 2.24584 7.33341 2.75001C7.33341 3.25418 7.74591 3.66668 8.25008 3.66668ZM13.7501 3.66668C14.2542 3.66668 14.6667 3.25418 14.6667 2.75001C14.6667 2.24584 14.2542 1.83334 13.7501 1.83334C13.2459 1.83334 12.8334 2.24584 12.8334 2.75001C12.8334 3.25418 13.2459 3.66668 13.7501 3.66668ZM17.4167 3.66668C16.9126 3.66668 16.5001 4.07918 16.5001 4.58334C16.5001 5.08751 16.9126 5.50001 17.4167 5.50001C17.9209 5.50001 18.3334 5.08751 18.3334 4.58334C18.3334 4.07918 17.9209 3.66668 17.4167 3.66668ZM13.7501 7.33334C13.7501 7.83751 14.1626 8.25001 14.6667 8.25001C15.1709 8.25001 15.5834 7.83751 15.5834 7.33334C15.5834 6.82918 15.1709 6.41668 14.6667 6.41668C14.1626 6.41668 13.7501 6.82918 13.7501 7.33334ZM16.9584 11.9808C16.9584 12.6317 16.7201 13.255 16.3259 13.75C16.7109 14.245 16.9584 14.8683 16.9584 15.5192C16.9584 17.105 15.6476 18.3975 14.0617 18.3975L13.6676 18.37C13.2367 19.4242 12.2009 20.1667 11.0001 20.1667C9.79925 20.1667 8.76341 19.4242 8.33258 18.37L7.93841 18.3975C6.34341 18.3975 5.04175 17.105 5.04175 15.5192C5.04175 14.8683 5.28008 14.245 5.67425 13.75C5.28925 13.255 5.04175 12.6317 5.04175 11.9808C5.04175 10.395 6.35258 9.10251 7.93841 9.10251L8.33258 9.13001C8.76341 8.07584 9.79925 7.33334 11.0001 7.33334C12.2009 7.33334 13.2367 8.07584 13.6676 9.13001L14.0617 9.10251C15.6476 9.10251 16.9584 10.395 16.9584 11.9808ZM6.87508 11.9808C6.87508 12.375 7.12258 12.7417 7.48925 12.925L8.29591 13.2917C8.40591 12.6317 8.76341 12.045 9.26758 11.6325L8.52508 11.1192C8.36008 11 8.15841 10.9358 7.93841 10.9358C7.36091 10.9358 6.87508 11.4033 6.87508 11.9808ZM9.27675 15.8675C8.76341 15.455 8.40591 14.8683 8.29591 14.2083L7.48925 14.575C7.12258 14.7583 6.87508 15.125 6.87508 15.51C6.87508 16.0875 7.36091 16.555 7.93841 16.555C8.14925 16.555 8.35091 16.5 8.53425 16.3717L9.27675 15.8675ZM12.0451 17.325L11.9442 16.3258C11.6509 16.4358 11.3301 16.5 11.0001 16.5C10.6701 16.5 10.3584 16.4358 10.0834 16.3258L9.95508 17.325C9.97341 17.875 10.4317 18.3333 11.0001 18.3333C11.5684 18.3333 12.0267 17.875 12.0451 17.325ZM12.0451 10.175C12.0267 9.62501 11.5684 9.16668 11.0001 9.16668C10.4317 9.16668 9.97341 9.62501 9.95508 10.175L10.0834 11.1742C10.3584 11.0642 10.6701 11 11.0001 11C11.3301 11 11.6509 11.0642 11.9442 11.1742L12.0451 10.175ZM15.1251 15.51C15.1251 15.125 14.8776 14.74 14.5109 14.5658L13.7042 14.1808C13.5942 14.8592 13.2367 15.4458 12.7326 15.8583L13.4751 16.3808C13.6401 16.5 13.8417 16.5642 14.0617 16.5642C14.6392 16.5642 15.1251 16.0967 15.1251 15.51ZM15.1251 11.9808C15.1251 11.4033 14.6392 10.9358 14.0617 10.9358C13.8509 10.9358 13.6492 11 13.4659 11.1192L12.7142 11.6325C13.2276 12.045 13.5851 12.6317 13.6951 13.2917L14.5017 12.925C14.8776 12.7417 15.1251 12.375 15.1251 11.9808Z" fill="#03A3DC"/>
</svg>
