<svg width="19" height="22" viewBox="0 0 19 22" fill="none" xmlns="http://www.w3.org/2000/svg">
<path d="M9.50017 4.88889C9.83675 4.88889 10.1191 4.77155 10.3472 4.53689C10.5753 4.30222 10.6889 4.01215 10.6881 3.66667C10.6873 3.32118 10.5733 3.03111 10.346 2.79644C10.1187 2.56178 9.83675 2.44444 9.50017 2.44444C9.16359 2.44444 8.88166 2.56178 8.65436 2.79644C8.42707 3.03111 8.31303 3.32118 8.31224 3.66667C8.31145 4.01215 8.42549 4.30263 8.65436 4.53811C8.88324 4.77359 9.16518 4.89052 9.50017 4.88889ZM12.8561 4.88889H14.935C15.5289 4.88889 16.0437 5.09259 16.4793 5.5C16.9148 5.90741 17.1821 6.40648 17.2811 6.99722L18.9739 19.2194C19.0729 19.9528 18.89 20.5997 18.4251 21.1603C17.9602 21.7209 17.3611 22.0008 16.6278 22H2.37258C1.64002 22 1.04091 21.7201 0.575238 21.1603C0.109569 20.6006 -0.0733723 19.9536 0.026414 19.2194L1.71922 6.99722C1.81821 6.40648 2.0855 5.90741 2.52107 5.5C2.95665 5.09259 3.47142 4.88889 4.06538 4.88889H6.14426C6.08487 4.68518 6.03537 4.48678 5.99577 4.29367C5.95617 4.10055 5.93638 3.89156 5.93638 3.66667C5.93638 2.64815 6.28286 1.78241 6.97582 1.06944C7.66878 0.356481 8.51023 0 9.50017 0C10.4901 0 11.3316 0.356481 12.0245 1.06944C12.7175 1.78241 13.064 2.64815 13.064 3.66667C13.064 3.89074 13.0442 4.09974 13.0046 4.29367C12.965 4.48759 12.9155 4.686 12.8561 4.88889Z" fill="#03A3DC"/>
</svg>
