<svg width="23" height="22" viewBox="0 0 23 22" fill="none" xmlns="http://www.w3.org/2000/svg">
<path d="M15.4282 8.24998H20.4699L15.4282 3.20831V8.24998ZM7.17822 1.83331H16.3449L21.8449 7.33331V16.5C21.8449 16.9862 21.6517 17.4525 21.3079 17.7963C20.9641 18.1402 20.4978 18.3333 20.0116 18.3333H7.17822C6.69199 18.3333 6.22568 18.1402 5.88186 17.7963C5.53804 17.4525 5.34489 16.9862 5.34489 16.5V3.66665C5.34489 3.18042 5.53804 2.7141 5.88186 2.37028C6.22568 2.02647 6.69199 1.83331 7.17822 1.83331ZM3.51156 5.49998V20.1666H20.0116V22H3.51156C3.02533 22 2.55901 21.8068 2.21519 21.463C1.87138 21.1192 1.67822 20.6529 1.67822 20.1666V5.49998H3.51156Z" fill="#03A3DC"/>
</svg>
