<svg width="23" height="22" viewBox="0 0 23 22" fill="none" xmlns="http://www.w3.org/2000/svg">
<path d="M18.1781 20.1667C17.1545 20.1667 16.2873 19.8077 15.5766 19.0896C14.8659 18.3715 14.5032 17.5007 14.4885 16.4771C14.4885 15.9729 14.5955 15.4917 14.8094 15.0334C15.0233 14.575 15.3135 14.1702 15.6802 13.8188L16.9177 12.65C17.2691 12.3139 17.6892 12.1459 18.1781 12.1459C18.667 12.1459 19.0872 12.3139 19.4385 12.65L20.6531 13.8188C21.0198 14.1702 21.3064 14.5714 21.513 15.0224C21.7195 15.4734 21.8301 15.9506 21.8448 16.4542C21.8448 17.4931 21.4858 18.3715 20.7677 19.0896C20.0497 19.8077 19.1865 20.1667 18.1781 20.1667ZM11.7615 8.06669C12.449 8.06669 13.0335 8.30747 13.515 8.78902C13.9966 9.27058 14.2371 9.8548 14.2365 10.5417C14.2358 11.2286 13.9954 11.8131 13.515 12.2953C13.0347 12.7774 12.4502 13.0179 11.7615 13.0167C11.0727 13.0155 10.4885 12.775 10.0088 12.2953C9.52907 11.8155 9.28829 11.231 9.28646 10.5417C9.28462 9.85235 9.5254 9.26813 10.0088 8.78902C10.4922 8.30991 11.0764 8.06913 11.7615 8.06669ZM7.63646 10.5417C7.63646 11.6875 8.03765 12.6616 8.84004 13.464C9.64243 14.2664 10.6162 14.6673 11.7615 14.6667C11.9906 14.6667 12.2122 14.6514 12.426 14.6209C12.6399 14.5903 12.8538 14.5368 13.0677 14.4604C12.9302 14.8118 12.8269 15.1669 12.7579 15.5256C12.6888 15.8843 12.6622 16.255 12.6781 16.6375C12.6934 16.8514 12.6363 17.0347 12.5067 17.1875C12.3772 17.3403 12.2051 17.4167 11.9906 17.4167C11.0281 17.4167 10.1038 17.3097 9.21771 17.0959C8.3316 16.882 7.48368 16.5611 6.67396 16.1334C5.75729 15.6445 4.92465 15.037 4.17604 14.311C3.42743 13.585 2.78576 12.7411 2.25104 11.7792C2.1441 11.5806 2.06771 11.3783 2.02188 11.1724C1.97604 10.9664 1.95312 10.7562 1.95312 10.5417C1.95312 10.3272 1.97604 10.1173 2.02188 9.91194C2.06771 9.7066 2.1441 9.50402 2.25104 9.30419C3.21354 7.5778 4.53904 6.20677 6.22754 5.1911C7.91604 4.17544 9.76068 3.6673 11.7615 3.66669C13.7622 3.66608 15.6072 4.17422 17.2963 5.1911C18.9854 6.20799 20.3106 7.57902 21.2719 9.30419C21.3635 9.48752 21.4323 9.68613 21.4781 9.90002C21.524 10.1139 21.5469 10.3278 21.5469 10.5417C21.5469 10.7709 21.52 10.9924 21.4662 11.2063C21.4124 11.4202 21.3324 11.6264 21.226 11.825L20.0802 10.7479C19.8205 10.4882 19.5342 10.2972 19.2213 10.175C18.9084 10.0528 18.576 9.99169 18.224 9.99169C17.872 9.99169 17.5322 10.0491 17.2046 10.164C16.8771 10.2789 16.5828 10.4583 16.3219 10.7021L15.8406 11.1604C15.8559 11.0535 15.8675 10.9505 15.8755 10.8515C15.8834 10.7525 15.8871 10.6492 15.8865 10.5417C15.8865 9.39585 15.4856 8.42205 14.6838 7.62027C13.882 6.81849 12.9079 6.4173 11.7615 6.41669C10.615 6.41608 9.64121 6.81727 8.84004 7.62027C8.03887 8.42327 7.63768 9.39708 7.63646 10.5417Z" fill="#03A3DC"/>
</svg>
