<svg width="22" height="22" viewBox="0 0 22 22" fill="none" xmlns="http://www.w3.org/2000/svg">
<path fill-rule="evenodd" clip-rule="evenodd" d="M19.7083 7.79168C19.7083 6.50468 19.7083 5.86026 19.3993 5.39826C19.2655 5.19799 19.0936 5.02605 18.8933 4.89226C18.4891 4.62184 17.9455 4.58793 16.9546 4.58426C16.9576 4.85193 16.9589 5.12998 16.9583 5.41843V6.64584H17.8749C18.0573 6.64584 18.2321 6.71828 18.3611 6.84721C18.49 6.97614 18.5624 7.15101 18.5624 7.33334C18.5624 7.51568 18.49 7.69055 18.3611 7.81948C18.2321 7.94841 18.0573 8.02084 17.8749 8.02084H16.9583V9.39584H17.8749C18.0573 9.39584 18.2321 9.46828 18.3611 9.59721C18.49 9.72614 18.5624 9.90101 18.5624 10.0833C18.5624 10.2657 18.49 10.4405 18.3611 10.5695C18.2321 10.6984 18.0573 10.7708 17.8749 10.7708H16.9583V12.1458H17.8749C18.0573 12.1458 18.2321 12.2183 18.3611 12.3472C18.49 12.4761 18.5624 12.651 18.5624 12.8333C18.5624 13.0157 18.49 13.1905 18.3611 13.3195C18.2321 13.4484 18.0573 13.5208 17.8749 13.5208H16.9583V19.4792H15.5833V5.50001C15.5833 3.77118 15.5833 2.90768 15.0461 2.37051C14.5089 1.83334 13.6454 1.83334 11.9166 1.83334H10.0833C8.35442 1.83334 7.49092 1.83334 6.95375 2.37051C6.41659 2.90768 6.41659 3.77118 6.41659 5.50001V19.4792H5.04159V13.5208H4.12492C3.94258 13.5208 3.76771 13.4484 3.63878 13.3195C3.50985 13.1905 3.43742 13.0157 3.43742 12.8333C3.43742 12.651 3.50985 12.4761 3.63878 12.3472C3.76771 12.2183 3.94258 12.1458 4.12492 12.1458H5.04159V10.7708H4.12492C3.94258 10.7708 3.76771 10.6984 3.63878 10.5695C3.50985 10.4405 3.43742 10.2657 3.43742 10.0833C3.43742 9.90101 3.50985 9.72614 3.63878 9.59721C3.76771 9.46828 3.94258 9.39584 4.12492 9.39584H5.04159V8.02084H4.12492C3.94258 8.02084 3.76771 7.94841 3.63878 7.81948C3.50985 7.69055 3.43742 7.51568 3.43742 7.33334C3.43742 7.15101 3.50985 6.97614 3.63878 6.84721C3.76771 6.71828 3.94258 6.64584 4.12492 6.64584H5.04159V5.41751C5.04097 5.13029 5.0422 4.85223 5.04525 4.58334C4.05434 4.58793 3.51075 4.62184 3.1065 4.89226C2.90624 5.02605 2.73429 5.19799 2.6005 5.39826C2.29159 5.86026 2.29159 6.50468 2.29159 7.79168V19.4792H1.83325C1.65092 19.4792 1.47605 19.5516 1.34712 19.6805C1.21818 19.8095 1.14575 19.9843 1.14575 20.1667C1.14575 20.349 1.21818 20.5239 1.34712 20.6528C1.47605 20.7817 1.65092 20.8542 1.83325 20.8542H20.1666C20.3489 20.8542 20.5238 20.7817 20.6527 20.6528C20.7817 20.5239 20.8541 20.349 20.8541 20.1667C20.8541 19.9843 20.7817 19.8095 20.6527 19.6805C20.5238 19.5516 20.3489 19.4792 20.1666 19.4792H19.7083V7.79168ZM10.9999 3.89584C11.1823 3.89584 11.3571 3.96828 11.4861 4.09721C11.615 4.22614 11.6874 4.40101 11.6874 4.58334V5.72918H12.8333C13.0156 5.72918 13.1905 5.80161 13.3194 5.93054C13.4483 6.05947 13.5208 6.23434 13.5208 6.41668C13.5208 6.59901 13.4483 6.77388 13.3194 6.90281C13.1905 7.03174 13.0156 7.10418 12.8333 7.10418H11.6874V8.25001C11.6874 8.43235 11.615 8.60722 11.4861 8.73615C11.3571 8.86508 11.1823 8.93751 10.9999 8.93751C10.8176 8.93751 10.6427 8.86508 10.5138 8.73615C10.3849 8.60722 10.3124 8.43235 10.3124 8.25001V7.10418H9.16659C8.98425 7.10418 8.80938 7.03174 8.68045 6.90281C8.55152 6.77388 8.47909 6.59901 8.47909 6.41668C8.47909 6.23434 8.55152 6.05947 8.68045 5.93054C8.80938 5.80161 8.98425 5.72918 9.16659 5.72918H10.3124V4.58334C10.3124 4.40101 10.3849 4.22614 10.5138 4.09721C10.6427 3.96828 10.8176 3.89584 10.9999 3.89584ZM8.47909 11C8.47909 10.8177 8.55152 10.6428 8.68045 10.5139C8.80938 10.3849 8.98425 10.3125 9.16659 10.3125H12.8333C13.0156 10.3125 13.1905 10.3849 13.3194 10.5139C13.4483 10.6428 13.5208 10.8177 13.5208 11C13.5208 11.1823 13.4483 11.3572 13.3194 11.4861C13.1905 11.6151 13.0156 11.6875 12.8333 11.6875H9.16659C8.98425 11.6875 8.80938 11.6151 8.68045 11.4861C8.55152 11.3572 8.47909 11.1823 8.47909 11ZM8.47909 13.75C8.47909 13.5677 8.55152 13.3928 8.68045 13.2639C8.80938 13.1349 8.98425 13.0625 9.16659 13.0625H12.8333C13.0156 13.0625 13.1905 13.1349 13.3194 13.2639C13.4483 13.3928 13.5208 13.5677 13.5208 13.75C13.5208 13.9323 13.4483 14.1072 13.3194 14.2361C13.1905 14.3651 13.0156 14.4375 12.8333 14.4375H9.16659C8.98425 14.4375 8.80938 14.3651 8.68045 14.2361C8.55152 14.1072 8.47909 13.9323 8.47909 13.75ZM10.9999 16.7292C11.1823 16.7292 11.3571 16.8016 11.4861 16.9305C11.615 17.0595 11.6874 17.2343 11.6874 17.4167V19.4792H10.3124V17.4167C10.3124 17.2343 10.3849 17.0595 10.5138 16.9305C10.6427 16.8016 10.8176 16.7292 10.9999 16.7292Z" fill="#03A3DC"/>
</svg>
