<svg width="22" height="22" viewBox="0 0 22 22" fill="none" xmlns="http://www.w3.org/2000/svg">
<path d="M11.3667 14.0708L7.92925 10.6333L15.5376 3.025C15.7209 2.84167 15.9388 2.75 16.1912 2.75C16.4436 2.75 16.6611 2.84167 16.8438 3.025L18.9751 5.15625C19.1584 5.33958 19.2501 5.55744 19.2501 5.80983C19.2501 6.06222 19.1584 6.27978 18.9751 6.4625L11.3667 14.0708ZM10.0834 19.25L11.9167 17.4167H20.1667V19.25H10.0834ZM4.65216 19.25C3.94939 19.25 3.27319 19.1125 2.62358 18.8375C1.97397 18.5625 1.40503 18.1806 0.916748 17.6917L6.98967 11.6417L9.373 14.025C9.58689 14.2389 9.75494 14.4833 9.87716 14.7583C9.99939 15.0333 10.0605 15.3236 10.0605 15.6292C10.0605 15.9347 9.99939 16.2287 9.87716 16.511C9.75494 16.7933 9.58689 17.0418 9.373 17.2563L8.93758 17.6917C8.44869 18.1806 7.87975 18.5625 7.23075 18.8375C6.58175 19.1125 5.90555 19.25 5.20217 19.25H4.65216Z" fill="#03A3DC"/>
</svg>
