<svg width="22" height="22" viewBox="0 0 22 22" fill="none" xmlns="http://www.w3.org/2000/svg">
<path d="M10.2207 13.915L8.91908 12.6225L10.2207 11.3209L11.5132 12.6225L12.8057 11.3209L11.5132 10.0284L12.8057 8.73585L14.1074 10.0284L15.3999 8.73585L12.8057 6.14169L6.32491 12.6225L8.91908 15.2167L10.2207 13.915ZM2.82324 17.4167L5.68324 14.5659L3.73991 12.6225L12.8057 3.54752L14.7582 5.50002L16.0416 4.19835L14.7582 2.89669L16.0416 1.60419L19.9374 5.50002L18.6449 6.78335L17.3432 5.50002L16.0416 6.78335L17.9941 8.73585L8.91908 17.8017L6.97574 15.8584L2.82324 20.02V17.4167Z" fill="#03A3DC"/>
</svg>
