<svg width="19" height="17" viewBox="0 0 19 17" fill="none" xmlns="http://www.w3.org/2000/svg">
<path d="M14 16.7999C12.7089 16.7999 11.6085 16.3447 10.6988 15.4344C9.78911 14.5241 9.33395 13.4237 9.33333 12.1332C9.33271 10.8427 9.78786 9.74232 10.6988 8.83201C11.6097 7.9217 12.7101 7.46654 14 7.46654C15.2899 7.46654 16.3906 7.9217 17.3021 8.83201C18.2137 9.74232 18.6685 10.8427 18.6667 12.1332C18.6648 13.4237 18.2096 14.5244 17.3012 15.4353C16.3927 16.3463 15.2923 16.8011 14 16.7999ZM14.1867 12.5999L16.31 10.4765L15.6567 9.82321L13.5333 11.9465L14.1867 12.5999ZM0 6.53321V1.86654C0 1.35321 0.182933 0.913922 0.5488 0.548678C0.914666 0.183433 1.35395 0.000500152 1.86667 -0.00012207H16.8C17.3133 -0.00012207 17.7529 0.182811 18.1188 0.548678C18.4847 0.914544 18.6673 1.35383 18.6667 1.86654V7.55987C18.0444 6.9221 17.3329 6.43614 16.5321 6.10201C15.7313 5.76788 14.8873 5.6005 14 5.59987C13.4089 5.59987 12.8451 5.67392 12.3088 5.82201C11.7724 5.9701 11.2628 6.17605 10.78 6.43987L9.24 3.31321C9.16222 3.15765 9.04555 3.04099 8.89 2.96321C8.73444 2.88543 8.57111 2.84654 8.4 2.84654C8.22889 2.84654 8.06555 2.88543 7.91 2.96321C7.75444 3.04099 7.63777 3.15765 7.56 3.31321L4.66666 9.12321L3.61667 7.04654C3.53889 6.89099 3.42595 6.76654 3.27787 6.67321C3.12978 6.57987 2.97049 6.53321 2.8 6.53321H0ZM1.86667 14.9332C1.35333 14.9332 0.914044 14.7506 0.5488 14.3853C0.183556 14.0201 0.000622222 13.5805 0 13.0665V8.39987H2.21667L3.82666 11.6199C3.90444 11.791 4.01738 11.9195 4.16546 12.0053C4.31355 12.0912 4.48062 12.1338 4.66666 12.1332C4.83778 12.1332 4.99738 12.0906 5.14546 12.0053C5.29355 11.9201 5.40618 11.7916 5.48333 11.6199L8.4 5.83321L9.28666 7.60654C8.72666 8.19765 8.28333 8.87836 7.95666 9.64867C7.63 10.419 7.46666 11.2472 7.46666 12.1332C7.46666 12.6154 7.51737 13.0939 7.6188 13.5687C7.72022 14.0434 7.87951 14.4983 8.09666 14.9332H1.86667Z" fill="#03A3DC"/>
</svg>
