<svg width="16" height="16" viewBox="0 0 16 16" fill="none" xmlns="http://www.w3.org/2000/svg">
<path d="M10.6263 12.3333C9.68425 13.0246 8.74125 13.529 7.99992 13.7753C5.66659 13 1.33325 9.66665 1.33325 5.99998C1.33325 3.97498 2.97492 2.33331 4.99992 2.33331C6.23992 2.33331 7.33658 2.94898 7.99992 3.89131C8.33808 3.40978 8.78727 3.01678 9.30947 2.74559C9.83166 2.4744 10.4115 2.33298 10.9999 2.33331C13.0249 2.33331 14.6666 3.97498 14.6666 5.99998C14.6666 6.58231 14.5573 7.15598 14.3643 7.71231" stroke="#03A3DC" stroke-width="2" stroke-linecap="round" stroke-linejoin="round"/>
<path d="M9 9.66665H10.3333L11.3333 8.33331L12.3333 11L13.3207 9.66665H14.6667" stroke="#03A3DC" stroke-width="2" stroke-linecap="round" stroke-linejoin="round"/>
</svg>
