<svg width="11" height="24" viewBox="0 0 11 24" fill="none" xmlns="http://www.w3.org/2000/svg">
<path d="M4.11253 19.2417V4.75696L2.85598 6.0165C2.60002 6.27308 2.2803 6.40136 1.89681 6.40136C1.51333 6.40136 1.18151 6.26141 0.901346 5.98151C0.645382 5.72494 0.517401 5.39839 0.517401 5.00187C0.517401 4.60535 0.645382 4.2788 0.901346 4.02223L4.53138 0.383547C4.671 0.243598 4.82225 0.144234 4.98514 0.085455C5.14802 0.0266763 5.32254 -0.00177987 5.5087 8.61231e-05C5.69486 0.00195211 5.86938 0.0313414 6.03226 0.0882541C6.19515 0.145167 6.3464 0.244064 6.48602 0.384946L10.1161 4.02363C10.372 4.2802 10.5 4.60115 10.5 4.98648C10.5 5.3718 10.372 5.70348 10.1161 5.98151C9.83682 6.26141 9.50546 6.40136 9.12198 6.40136C8.7385 6.40136 8.40668 6.26141 8.12652 5.98151L6.90487 4.75696V19.2417L8.16142 17.9822C8.41738 17.7256 8.73757 17.5973 9.12198 17.5973C9.5064 17.5973 9.83775 17.7372 10.1161 18.0171C10.372 18.2737 10.5 18.6003 10.5 18.9968C10.5 19.3933 10.372 19.7199 10.1161 19.9764L6.48602 23.6151C6.3464 23.7551 6.19515 23.8544 6.03226 23.9132C5.86938 23.972 5.69486 24.0009 5.5087 24C5.32254 23.999 5.14802 23.9701 4.98514 23.9132C4.82225 23.8563 4.671 23.7569 4.53138 23.6151L0.901346 19.9764C0.645382 19.7199 0.511816 19.3994 0.500646 19.015C0.489477 18.6306 0.623043 18.298 0.901346 18.0171C1.15731 17.7606 1.48308 17.6323 1.87866 17.6323C2.27424 17.6323 2.60002 17.7606 2.85598 18.0171L4.11253 19.2417Z" fill="#03A3DC"/>
</svg>
