<svg width="16" height="16" viewBox="0 0 16 16" fill="none" xmlns="http://www.w3.org/2000/svg">
<path d="M7.33337 11.45V4.54998L6.73337 5.14998C6.61115 5.2722 6.45848 5.33331 6.27537 5.33331C6.09226 5.33331 5.93382 5.26664 5.80004 5.13331C5.67782 5.01109 5.61671 4.85553 5.61671 4.66664C5.61671 4.47775 5.67782 4.3222 5.80004 4.19998L7.53337 2.46664C7.60004 2.39998 7.67226 2.35264 7.75004 2.32464C7.82782 2.29664 7.91115 2.28309 8.00004 2.28398C8.08893 2.28487 8.17226 2.29887 8.25004 2.32598C8.32782 2.35309 8.40004 2.4002 8.46671 2.46731L10.2 4.20064C10.3223 4.32287 10.3834 4.47575 10.3834 4.65931C10.3834 4.84286 10.3223 5.00086 10.2 5.13331C10.0667 5.26664 9.90848 5.33331 9.72537 5.33331C9.54226 5.33331 9.38382 5.26664 9.25004 5.13331L8.66671 4.54998V11.45L9.26671 10.85C9.38893 10.7278 9.54182 10.6666 9.72537 10.6666C9.90893 10.6666 10.0672 10.7333 10.2 10.8666C10.3223 10.9889 10.3834 11.1444 10.3834 11.3333C10.3834 11.5222 10.3223 11.6778 10.2 11.8L8.46671 13.5333C8.40004 13.6 8.32782 13.6473 8.25004 13.6753C8.17226 13.7033 8.08893 13.7171 8.00004 13.7166C7.91115 13.7162 7.82782 13.7024 7.75004 13.6753C7.67226 13.6482 7.60004 13.6009 7.53337 13.5333L5.80004 11.8C5.67782 11.6778 5.61404 11.5251 5.60871 11.342C5.60337 11.1589 5.66715 11.0004 5.80004 10.8666C5.92226 10.7444 6.07782 10.6833 6.26671 10.6833C6.4556 10.6833 6.61115 10.7444 6.73337 10.8666L7.33337 11.45Z" fill="#03A3DC"/>
</svg>
