<svg width="16" height="16" viewBox="0 0 16 16" fill="none" xmlns="http://www.w3.org/2000/svg">
<path d="M7.99991 1.83331C7.03991 1.83398 6.15491 2.20931 5.68391 2.81565H3.33724C2.98362 2.81565 2.64448 2.95612 2.39443 3.20617C2.14438 3.45622 2.00391 3.79536 2.00391 4.14898V12.8333C2.00391 13.1869 2.14438 13.5261 2.39443 13.7761C2.64448 14.0262 2.98362 14.1666 3.33724 14.1666H12.6629C13.0165 14.1666 13.3557 14.0262 13.6057 13.7761C13.8558 13.5261 13.9962 13.1869 13.9962 12.8333V4.14898C13.9962 3.79536 13.8558 3.45622 13.6057 3.20617C13.3557 2.95612 13.0165 2.81565 12.6629 2.81565H10.3189C9.84757 2.20898 8.96124 1.83331 7.99991 1.83331Z" stroke="#03A3DC" stroke-width="0.5" stroke-linecap="round" stroke-linejoin="round"/>
<path d="M6.34662 3.53064L6.63228 3.81631M9.65328 3.53064L9.36762 3.81631M7.99995 3.49664V4.44764M7.99995 8.95098V10.9333M8.99128 9.94231H7.00861M7.99995 2.85431C6.70128 2.85431 5.64861 3.92831 5.64861 5.11631H7.23962C7.26095 4.74264 7.59462 4.44898 7.99995 4.44731C8.40662 4.44731 8.74195 4.74131 8.76328 5.11631H10.3513C10.3513 3.92831 9.29862 2.85431 7.99995 2.85431ZM9.32728 10.989C10.3616 10.0153 10.4943 9.50131 10.4943 8.84131C10.4943 8.20664 9.90762 7.54798 9.18395 7.54798C8.61395 7.54798 8.12862 7.86698 7.99995 8.31264C7.87128 7.86698 7.38628 7.54764 6.81595 7.54764C6.09228 7.54764 5.50562 8.20664 5.50562 8.84098C5.50562 9.50098 5.63828 10.0153 6.67262 10.989C7.19128 11.4773 7.55395 11.747 7.99995 11.977C8.44595 11.747 8.80862 11.477 9.32728 10.989Z" stroke="#03A3DC" stroke-width="0.5" stroke-linecap="round" stroke-linejoin="round"/>
</svg>
